Coordinates
version=1
nRows=14
nColumns=36
inDegrees=yes

Units are S.I. units (second, meters, Newtons, ...)
If the header above contains a line with 'inDegrees', this indicates whether rotational values are in degrees (yes) or radians (no).

endheader
time	pelvis_tilt	pelvis_list	pelvis_rotation	pelvis_tx	pelvis_ty	pelvis_tz	hip_flexion_r	hip_adduction_r	hip_rotation_r	knee_angle_r	knee_angle_r_beta	ankle_angle_r	subtalar_angle_r	mtp_angle_r	hip_flexion_l	hip_adduction_l	hip_rotation_l	knee_angle_l	knee_angle_l_beta	ankle_angle_l	subtalar_angle_l	mtp_angle_l	lumbar_extension	lumbar_bending	lumbar_rotation	arm_flex_r	arm_add_r	arm_rot_r	elbow_flex_r	pro_sup_r	arm_flex_l	arm_add_l	arm_rot_l	elbow_flex_l	pro_sup_l
      0.00000000	     -2.01303682	      0.60925046	     -2.25691443	     -0.91511149	      1.20650152	     -0.05908564	     16.86851675	     -1.47719618	      0.36143126	     33.38257518	      0.58263585	      8.52505418	    -17.75971851	     -5.75215080	     15.39035938	     -2.83973342	     -3.61277725	     31.41995430	      0.54838165	     11.21731106	     -7.28816437	     -5.75215080	    -19.27840227	      0.36957544	     -0.61235887	      8.12445488	     -7.74423436	     12.19697120	     25.76123001	     74.66753986	      7.80354401	     -7.28807486	     14.46336416	     28.78062853	     72.14208534
      0.00416670	     -3.24764956	      0.96420503	     -1.74358582	     -0.91475598	      1.20615682	     -0.05921401	     19.63821405	     -1.14816374	      1.63247772	     35.89847636	      0.62654661	     12.43289990	    -17.54938621	     -5.82771133	     18.18246766	     -1.46910705	     -2.27399531	     34.21531247	      0.59716986	     13.46512868	     -5.65425241	     -5.82771133	    -18.22054617	      0.46795176	     -1.37566566	      8.20840539	     -6.74427866	      9.84848490	     25.19408189	     74.31342194	      7.58185282	     -6.82546079	     13.17461309	     28.93106380	     72.27609550
      0.00833330	     -4.30730237	      1.40940567	     -1.66780272	     -0.91425924	      1.20465588	     -0.05915338	     20.65421419	     -1.65044686	      1.27551154	     35.67530158	      0.62265147	     12.40258939	    -17.99937635	     -5.88214689	     19.00016642	     -0.97839128	     -1.79841613	     33.97053283	      0.59289765	     13.67079521	     -5.94293449	     -5.88214689	    -16.94199815	     -0.02874786	     -1.50931680	      7.67271483	     -6.42485936	      9.03019717	     25.75480107	     73.45816943	      7.24072821	     -7.00043903	     12.70671229	     29.51257976	     71.69028930
      0.01250000	     -3.65786823	      1.62430233	     -1.50840359	     -0.91439800	      1.20399894	     -0.05831816	     20.04003969	     -1.98912540	      0.91870653	     35.95040386	      0.62745291	     13.10738708	    -17.14990189	     -6.63795137	     18.13587628	     -0.52416748	     -1.08836550	     33.72806645	      0.58866581	     13.43207154	     -7.26075825	     -6.63795137	    -18.11208299	     -0.30359867	     -1.05424920	      6.96114000	     -4.84253496	     -1.51466275	     27.35352441	     79.65832573	      7.97382656	     -6.51288082	      9.15731623	     29.21527026	     81.25397516
      0.01666670	     -3.86003713	      1.75455050	     -1.26631582	     -0.91522683	      1.20465794	     -0.05867286	     20.28246929	     -2.15670762	      0.66157104	     35.99424156	      0.62821803	     13.14217846	    -16.89036332	     -6.72444649	     18.25955266	     -0.19436415	     -0.54228973	     33.25339480	      0.58038123	     13.29173655	     -7.84390468	     -6.72444649	    -18.08017749	     -0.34341572	     -1.31476616	      6.89745075	     -4.61294423	     -1.99587452	     27.81153006	     78.79054160	      7.92283114	     -6.61454365	      8.90235461	     29.64260672	     80.43918130
      0.02083330	     -4.02764538	      1.89278466	     -1.00118872	     -0.91620365	      1.20405178	     -0.05858035	     20.48334887	     -2.32787350	      0.49622554	     35.90213840	      0.62661052	     13.36207674	    -16.52968436	     -6.86169405	     18.62288778	      0.06862823	     -0.18424345	     33.17408761	      0.57899706	     13.12900812	     -8.42403486	     -6.86169405	    -17.98576739	     -0.38213205	     -1.43643556	      6.78832074	     -4.43050485	     -2.35851029	     28.16399042	     77.27064994	      7.89950407	     -6.71002797	      8.92776258	     30.12418211	     79.01016484
      0.02500000	     -4.13409810	      1.91755460	     -0.80824429	     -0.91568858	      1.20426894	     -0.05855261	     20.59318088	     -2.41959939	      0.35870619	     35.80435594	      0.62490390	     13.32137441	    -16.53259115	     -7.08021758	     18.80336448	      0.16478700	      0.07579514	     33.06176475	      0.57703665	     12.96031513	     -8.75125647	     -7.08021758	    -17.88182707	     -0.32788404	     -1.31632531	      6.55406481	     -4.31379257	     -3.74236031	     28.52206826	     82.84352796	      7.97690097	     -6.68693635	      8.41900426	     30.29820759	     87.21445335
      0.02916670	     -4.16768734	      1.92085877	     -0.64466957	     -0.91410647	      1.20439150	     -0.05792631	     20.44068000	     -2.42008857	      0.28902493	     35.51017108	      0.61976940	     13.55031014	    -16.30235906	     -7.10369391	     18.73247365	      0.21353581	      0.22674285	     32.89588449	      0.57414149	     12.98945363	     -8.78100597	     -7.10369391	    -17.62249366	     -0.30819962	     -1.33356320	      6.45986491	     -4.29773457	     -3.31363011	     28.32622410	     82.18189952	      7.91106291	     -6.67278695	      8.82746071	     30.38085820	     86.65098024
      0.03333330	     -4.22293556	      1.92232770	     -0.50702724	     -0.91348969	      1.20373970	     -0.05775638	     20.36620401	     -2.41406963	      0.22976628	     35.38027227	      0.61750224	     13.78529159	    -16.20159421	     -7.13769863	     18.72426787	      0.25946112	      0.31756980	     32.74831852	      0.57156598	     12.96536594	     -8.73741254	     -7.13769863	    -17.41714826	     -0.29008163	     -1.39734586	      6.38442858	     -4.27294317	     -3.08927524	     28.37053470	     81.63065241	      7.88010879	     -6.72217324	      9.11292576	     30.46988933	     86.04440672
      0.03750000	     -4.41655092	      1.88121984	     -0.43452607	     -0.91420526	      1.20414396	     -0.05630394	     20.55506064	     -2.25155564	      0.30413172	     35.39200984	      0.61770710	     13.80913672	    -16.49630469	     -7.20093746	     19.01666137	      0.17004705	      0.37867414	     32.85956671	      0.57350763	     12.82743612	     -8.75401053	     -7.20093746	    -17.13937244	     -0.28337865	     -1.29800090	      6.19796153	     -4.46087969	     -1.97217928	     28.28552804	     82.58526842	      7.88314343	     -6.98797660	     10.32504724	     30.39301453	     87.84470909
      0.04166670	     -4.73717133	      1.90220280	     -0.42131615	     -0.91319625	      1.20173001	     -0.05889482	     21.02974862	     -2.33220943	      0.28860725	     35.70124065	      0.62310420	     13.86253380	    -16.74256474	     -7.21878769	     19.41542682	      0.25223273	      0.44209292	     32.99529397	      0.57587652	     12.93149051	     -8.64784370	     -7.21878769	    -16.71167745	     -0.24619470	     -1.37772664	      5.99180312	     -4.44492713	     -2.06827423	     28.57103324	     81.79020398	      7.61462253	     -6.98882635	     10.23542272	     30.63544613	     87.01377739
      0.04583330	     -4.76746795	      1.90199221	     -0.48437426	     -0.91423244	      1.20485121	     -0.05914539	     21.06300865	     -2.33652226	      0.40512944	     35.59316845	      0.62121798	     13.80234402	    -16.91246141	     -7.25010830	     19.40453696	      0.34416202	      0.56865429	     32.88219209	      0.57390252	     12.85974171	     -8.65163794	     -7.25010830	    -16.71912688	     -0.22860587	     -1.34129150	      6.10604684	     -4.45255345	     -1.96259284	     28.41663952	     81.13142347	      7.68275105	     -6.92254805	     10.31712994	     30.41339862	     86.33980120
      0.05000000	     -5.15831846	      1.89267098	     -0.46362451	     -0.91491736	      1.20048564	     -0.05843032	     21.69570586	     -2.27347061	      0.71421781	     35.92451716	      0.62700111	     13.73102015	    -17.55359751	     -7.23421396	     20.06490167	      0.30518593	      0.61565908	     33.16220357	      0.57878964	     13.01203740	     -8.67980385	     -7.23421396	    -16.20806735	     -0.16029526	     -1.35706026	      6.01871121	     -4.44806751	     -1.88049254	     28.38999670	     80.68642293	      7.57377135	     -6.89460256	     10.21425249	     30.43871230	     86.03896885
      0.05416670	     -5.46330648	      1.91571271	     -0.45100586	     -0.91274262	      1.19823742	     -0.05861496	     22.23809853	     -2.34235307	      0.76115320	     36.46430444	      0.63642217	     14.11666624	    -17.48696671	     -7.27383106	     20.51844474	      0.28346271	      0.59590606	     33.46669238	      0.58410397	     13.18636831	     -8.70701150	     -7.27383106	    -15.73401023	     -0.17148870	     -1.22236669	      5.76178512	     -4.73422492	     -0.98648684	     28.56104674	     82.76174902	      7.56220812	     -7.11079458	     11.21089485	     30.31244852	     89.33174633
